<?xml version="1.0" encoding="UTF-8" standalone="no"?>
<!-- Created with Inkscape (http://www.inkscape.org/) -->
<svg xmlns:rdf="http://www.w3.org/1999/02/22-rdf-syntax-ns#" xmlns="http://www.w3.org/2000/svg" height="512" width="512" version="1.1" xmlns:cc="http://creativecommons.org/ns#" xmlns:dc="http://purl.org/dc/elements/1.1/" viewBox="0 0 144.49778 144.49778">
 <metadata>
  <rdf:RDF>
   <cc:Work rdf:about="">
    <dc:format>image/svg+xml</dc:format>
    <dc:type rdf:resource="http://purl.org/dc/dcmitype/StillImage"/>
    <dc:title/>
   </cc:Work>
  </rdf:RDF>
 </metadata>
 <circle fill-rule="evenodd" cx="72.249" cy="72.249" r="63.5" fill="#223656"/>
 <path d="m130 71.806c0 31.55-25.577 57.126-57.126 57.126-31.55 0-57.126-25.577-57.126-57.126 0-31.55 25.577-57.126 57.126-57.126 31.55 0 57.126 25.577 57.126 57.126" fill-rule="evenodd" stroke-width=".91607" fill="#d2dbe8"/>
 <text style="word-spacing:0;letter-spacing:0" font-family="&apos;Gentium Book Basic&apos;" font-size="33.409px" line-height="125%" y="65.874069" x="194.70087" stroke-width=".91607">
  <tspan y="65.874069" x="194.70087" stroke-width=".91607"/>
 </text>
 <text style="text-anchor:middle" font-family="Arial" transform="scale(4.0128 .24920)" font-size="12.139px" y="174.09158" x="99.475075" stroke-width=".91606"/>
 <text style="word-spacing:0;letter-spacing:0" font-family="&apos;Gentium Book Basic&apos;" font-size="33.409px" line-height="125%" y="45.194714" x="344.98203" stroke-width=".91607">
  <tspan y="45.194714" x="344.98203" stroke-width=".91607"/>
 </text>
 <text style="text-anchor:middle" font-family="Arial" transform="scale(4.0128 .24920)" font-size="12.139px" y="91.09156" x="136.9238" stroke-width=".91606"/>
 <text style="word-spacing:0;letter-spacing:0" font-family="&apos;Gentium Book Basic&apos;" font-size="33.409px" line-height="125%" y="-1.6668047" x="67.935219" stroke-width=".91607">
  <tspan y="-1.6668047" x="67.935219" stroke-width=".91607"/>
 </text>
 <text style="text-anchor:middle" font-family="Arial" transform="scale(4.0128 .24920)" font-size="12.139px" y="-96.953575" x="67.880005" stroke-width=".91606"/>
 <text style="word-spacing:0;letter-spacing:0" font-family="&apos;Gentium Book Basic&apos;" font-size="33.409px" line-height="125%" y="-57.630386" x="351.82507" stroke-width=".91607">
  <tspan y="-57.630386" x="351.82507" stroke-width=".91607"/>
 </text>
 <text style="text-anchor:middle" font-family="Arial" transform="scale(4.0128 .24920)" font-size="12.139px" y="-321.53598" x="138.62766" stroke-width=".91606"/>
 <text style="word-spacing:0;letter-spacing:0" font-family="&apos;Gentium Book Basic&apos;" font-size="33.409px" line-height="125%" y="-78.315224" x="502.1062" stroke-width=".91607">
  <tspan y="-78.315224" x="502.1062" stroke-width=".91607"/>
 </text>
 <text style="text-anchor:middle" font-family="Arial" transform="scale(4.0128 .24920)" font-size="12.139px" y="-404.5314" x="176.07639" stroke-width=".91606"/>
 <text style="word-spacing:0;letter-spacing:0" font-family="&apos;Gentium Book Basic&apos;" font-size="33.409px" line-height="125%" y="-200.44557" x="401.50351" stroke-width=".91607">
  <tspan y="-200.44557" x="401.50351" stroke-width=".91607"/>
 </text>
 <text style="text-anchor:middle" font-family="Arial" transform="scale(4.0128 .24920)" font-size="12.139px" y="-894.62592" x="151.00371" stroke-width=".91606"/>
 <text style="word-spacing:0;letter-spacing:0" font-family="&apos;Gentium Book Basic&apos;" font-size="33.409px" line-height="125%" y="-221.13042" x="551.77551" stroke-width=".91607">
  <tspan y="-221.13042" x="551.77551" stroke-width=".91607"/>
 </text>
 <text style="text-anchor:middle" font-family="Arial" transform="scale(4.0128 .24920)" font-size="12.139px" y="-977.6214" x="188.45242" stroke-width=".91606"/>
 <text style="word-spacing:0;letter-spacing:0" font-family="&apos;Gentium Book Basic&apos;" font-size="53.861px" line-height="125%" y="144.61937" x="77.929535" stroke-width=".91607">
  <tspan y="144.61937" x="77.929535" stroke-width=".91607"/>
 </text>
 <path d="m100.11 71.803a27.239 27.239 0 0 1 -54.478 0 27.239 27.239 0 1 1 54.478 0" stroke-width=".92469" fill="#223656"/>
 <path stroke-width=".92469" fill="#fff" d="m104 36.336c-0.69564 0-1.3913 0.26631-1.9244 0.79934l-30.392 30.392c-0.06944-0.079-0.14272-0.15569-0.22369-0.22723l-26.972-23.831c-1.0339-0.91343-2.6015-0.81672-3.515 0.21713-0.91343 1.0339-0.81622 2.6015 0.21763 3.515l26.973 23.831c0.53851 0.47578 1.2217 0.6751 1.882 0.61301 0.13212 0.29368 0.31608 0.57007 0.55797 0.81196l0.001 0.000504c1.0661 1.0661 2.7822 1.0661 3.8482 0l31.473-31.473c1.0661-1.0661 1.0661-2.7822 0-3.8482l-0.00051-0.001c-0.53303-0.53303-1.2287-0.79934-1.9244-0.79934z"/>
 <rect rx="1.3029" transform="matrix(.47720 -.87879 .85224 .52315 0 0)" height="2.6058" width="42.979" y="97.821" x="-69.949" stroke-width=".91607" fill="#f64747"/>
 <path stroke-width=".91607" d="m78.322 71.804a5.4478 5.4478 0 0 1 -10.896 0 5.4478 5.4478 0 1 1 10.896 0" fill="#e6e6e6"/>
</svg>
